<svg xmlns="http://www.w3.org/2000/svg" width="1200" height="90" viewBox="0 0 1200 90" role="img" aria-labelledby="title desc">
  <title id="title">CUDA-style Programming</title><desc id="desc">Kernel, memory, stream, and optimization examples</desc>
  <defs><linearGradient id="g" x1="0" x2="1"><stop stop-color="#020b1f"/><stop offset=".55" stop-color="#073c56"/><stop offset="1" stop-color="#087cf0"/></linearGradient><pattern id="p" width="28" height="28" patternUnits="userSpaceOnUse"><path d="M0 14h8l6-6h14M14 28v-8l6-6" fill="none" stroke="#54c7ff" stroke-opacity=".16"/></pattern></defs>
  <rect width="1200" height="90" rx="14" fill="url(#g)"/><rect width="1200" height="90" rx="14" fill="url(#p)"/>
  <g transform="translate(0 -10)">
  <path d="M54 28h56v54H54zM44 39h10m-10 16h10m-10 16h10m56-32h10m-10 16h10m-10 16h10M67 18v10m16-10v10m16-10v10M67 82v10m16-10v10m16-10v10" fill="none" stroke="#fff" stroke-width="4" stroke-linecap="round"/>
  <text x="150" y="48" fill="#7fcdff" font-family="Noto Sans, Arial, sans-serif" font-size="17" font-weight="700" letter-spacing="3">CUDA-STYLE</text><text x="150" y="82" fill="#fff" font-family="Noto Sans, Arial, sans-serif" font-size="30" font-weight="700">Programming Demos</text><text x="710" y="67" fill="#f0f8ff" font-family="Noto Sans, Arial, sans-serif" font-size="19">Kernels · Memory · Streams · Optimization</text>
  </g>
</svg>
